<?xml version="1.0" encoding="utf-8"?>
<!-- Generator: Adobe Illustrator 17.0.0, SVG Export Plug-In . SVG Version: 6.00 Build 0)  -->
<!DOCTYPE svg PUBLIC "-//W3C//DTD SVG 1.1//EN" "http://www.w3.org/Graphics/SVG/1.1/DTD/svg11.dtd">
<svg version="1.1" id="Calque_1" xmlns="http://www.w3.org/2000/svg" xmlns:xlink="http://www.w3.org/1999/xlink" x="0px" y="0px"
	 width="192.667px" height="130px" viewBox="0 0 192.667 130" enable-background="new 0 0 192.667 130" xml:space="preserve">
<path fill="#1A171B" d="M182.339,65.388c-0.226,1.303-0.509,2.605-0.876,3.908c-0.395,1.303-0.849,2.633-1.386,3.936
	c-0.537,1.331-1.159,2.662-1.865,3.992c-5.457,10.25-15.437,19.595-29.092,27.183c-14.192,7.9-31.155,13.252-49.107,15.574
	c-17.189,2.208-33.955,1.444-48.769-2.096c-13.316-3.171-24.313-8.381-32.399-15.205c-1.018-0.878-1.979-1.727-2.884-2.634
	c-0.876-0.85-1.696-1.728-2.488-2.634c-0.735-0.877-1.442-1.755-2.092-2.633c-0.65-0.878-1.216-1.756-1.753-2.634
	c-3.647-5.946-5.089-12.119-4.863-18.093c0.226-5.295,1.725-10.505,4.241-15.404c2.262-4.417,5.372-8.665,9.16-12.629
	c3.506-3.681,7.69-7.164,12.468-10.448c0.028-0.028,0.057-0.057,0.113-0.085c0.028,0,0.084-0.028,0.113-0.057
	c0.028-0.028,0.085-0.057,0.113-0.085c0.057-0.028,0.085-0.057,0.141-0.057c0.311-0.17,0.622-0.34,0.961-0.481
	c0.339-0.113,0.678-0.227,1.018-0.312c0.339-0.085,0.65-0.142,0.961-0.17c0.311-0.028,0.594-0.028,0.848,0
	c0.028,0.028,0.057,0.028,0.085,0.028c0.028,0,0.056,0,0.084,0.028c0.057,0,0.085,0,0.113,0.028c0.028,0,0.028,0,0.057,0.028
	c0.198,0.057,0.311,0.17,0.396,0.283c0.057,0.142,0.085,0.283,0.028,0.425c-0.028,0.17-0.141,0.368-0.311,0.538
	c-0.17,0.198-0.396,0.396-0.678,0.595c-4.212,2.973-7.832,6.173-10.8,9.486c-3.195,3.539-5.711,7.305-7.379,11.185
	c-1.866,4.248-2.742,8.693-2.432,13.11c0.339,4.927,2.177,9.91,5.852,14.554c0.566,0.679,1.131,1.358,1.753,2.01
	c0.65,0.68,1.329,1.359,2.035,2.011c0.735,0.651,1.499,1.331,2.318,1.982c0.848,0.65,1.725,1.302,2.658,1.925
	c7.237,4.927,16.624,8.495,27.593,10.421c11.931,2.123,25.163,2.208,38.534,0.198c13.854-2.067,27.028-6.229,38.28-12.177
	c10.941-5.72,19.395-12.77,24.653-20.556c0.678-1.02,1.3-2.039,1.865-3.086c0.565-1.02,1.074-2.039,1.499-3.086
	c0.452-0.991,0.819-2.011,1.159-3.03c0.311-1.02,0.565-2.039,0.763-3.03c0.028-0.085,0.028-0.142,0.057-0.198
	c0-0.085,0.028-0.142,0.057-0.198c0.028-0.057,0.057-0.142,0.113-0.198c0.028-0.057,0.057-0.113,0.113-0.17
	c0.282-0.425,0.763-0.793,1.356-1.104c0.594-0.311,1.357-0.538,2.178-0.708c0.848-0.142,1.809-0.227,2.827-0.255
	c1.046,0,2.148,0.085,3.308,0.283c0.169,0.028,0.311,0.057,0.48,0.085c0.142,0.028,0.311,0.057,0.452,0.085
	c0.17,0.028,0.312,0.057,0.48,0.085c0.142,0.028,0.283,0.057,0.452,0.113c1.103,0.255,2.149,0.595,3.082,0.991
	c0.933,0.396,1.81,0.85,2.516,1.331c0.707,0.509,1.272,1.019,1.669,1.557c0.396,0.566,0.594,1.133,0.565,1.67
	C182.679,62.839,182.537,64.114,182.339,65.388 M48.077,31.041l10.093,0.935l3.901,9.769l7.775,0.113l4.664,10.958l-7.774,0.68
	l4.523,11.298l-10.15,1.954l-4.495-12.346l-10.715,0.962l-4.58-13.875l10.63,0.142L48.077,31.041L48.077,31.041z M76.462,65.728
	c0.735-0.481,1.64-0.821,2.686-1.02c11.732-2.067,20.187-5.578,25.614-9.74c4.665-3.568,7.012-7.617,7.407-11.695
	c0.367-3.539-0.735-7.164-3.053-10.646c-2.064-3.086-5.146-6.144-9.104-9.061c-3.647-2.662-7.803-5.069-12.271-7.164
	c-4.212-2.01-8.82-3.794-13.627-5.38c-4.722-1.529-9.782-2.888-14.984-3.993c-5.315-1.133-10.969-2.067-16.906-2.718
	c-0.509-0.057-0.989-0.142-1.47-0.255c-0.48-0.085-0.933-0.198-1.329-0.34c-0.368-0.142-0.707-0.283-0.961-0.425
	c-0.254-0.142-0.424-0.283-0.509-0.425c-0.057-0.113-0.028-0.255,0.085-0.34c0.141-0.084,0.339-0.169,0.622-0.226
	c0.283-0.028,0.622-0.057,1.018-0.057s0.848,0.028,1.357,0.085c3.336,0.396,6.587,0.849,9.726,1.387
	c3.081,0.51,6.078,1.076,9.018,1.728c2.884,0.623,5.711,1.302,8.481,2.039c2.771,0.736,5.457,1.557,8.086,2.407
	c2.658,0.85,5.287,1.756,7.802,2.718c2.573,0.991,5.09,2.067,7.521,3.171c2.516,1.161,4.947,2.378,7.293,3.681
	c2.432,1.331,4.778,2.775,7.012,4.304c2.375,1.642,4.495,3.285,6.39,4.983c2.007,1.784,3.788,3.653,5.286,5.521
	c1.612,2.011,2.912,4.078,3.874,6.173c1.046,2.266,1.725,4.587,1.95,6.909c0.255,2.548-0.028,5.097-0.876,7.646
	c-0.905,2.803-2.545,5.55-4.977,8.211c-2.657,2.917-6.247,5.72-10.912,8.268c-5.089,2.775-11.422,5.239-18.999,7.221
	c-1.158,0.312-2.375,0.368-3.619,0.198c-1.243-0.142-2.516-0.481-3.703-1.02c-1.159-0.538-2.262-1.217-3.194-2.067
	c-0.933-0.821-1.696-1.756-2.262-2.803c-0.509-0.991-0.792-1.982-0.792-2.916c-0.028-0.906,0.17-1.756,0.594-2.492
	C75.134,66.86,75.699,66.237,76.462,65.728 M189.69,59.979c-0.763-0.963-1.837-1.897-3.166-2.747
	c-1.272-0.85-2.827-1.614-4.523-2.293c-1.668-0.651-3.478-1.218-5.4-1.643c-0.254-0.057-0.537-0.113-0.791-0.17
	c-0.255-0.057-0.537-0.113-0.792-0.17c-0.254-0.057-0.537-0.085-0.791-0.142c-0.283-0.028-0.537-0.085-0.82-0.113
	c-1.951-0.283-3.845-0.396-5.569-0.396c-1.753,0.028-3.336,0.17-4.75,0.453c-1.413,0.283-2.657,0.68-3.675,1.189
	c-1.046,0.481-1.838,1.104-2.375,1.84c-0.085,0.085-0.142,0.198-0.198,0.283c-0.085,0.113-0.141,0.227-0.169,0.34
	c-0.057,0.085-0.113,0.198-0.142,0.311c-0.057,0.113-0.085,0.227-0.113,0.34c-0.227,0.935-0.509,1.84-0.848,2.775
	c-0.34,0.935-0.735,1.84-1.188,2.775c-0.453,0.935-0.962,1.869-1.499,2.803c-0.566,0.935-1.188,1.869-1.838,2.775
	c-5.089,7.022-12.977,13.365-23.013,18.546c-10.319,5.323-22.307,9.118-34.858,11.1c-12.186,1.897-24.286,1.982-35.255,0.255
	c-10.178-1.613-18.97-4.672-25.869-9.032c-0.876-0.566-1.725-1.133-2.545-1.728c-0.792-0.566-1.527-1.161-2.233-1.756
	c-0.707-0.595-1.357-1.188-1.979-1.812c-0.622-0.595-1.188-1.189-1.725-1.812c-3.647-4.219-5.569-8.777-6.107-13.365
	c-0.452-4.105,0.226-8.268,1.866-12.261c1.47-3.681,3.76-7.277,6.757-10.675c0-0.028,0.028-0.028,0.028-0.057l9.527,34.516
	c0.509,1.869,1.329,3.568,2.403,5.04c1.046,1.473,2.347,2.69,3.732,3.597c1.414,0.906,2.912,1.501,4.439,1.756
	c1.527,0.227,3.025,0.085,4.467-0.425l28.752-10.278c0.028,0.028,0.084,0.057,0.141,0.085c1.527,0.679,3.167,1.16,4.807,1.358
	c1.611,0.17,3.223,0.085,4.693-0.312c15.012-4.105,24.907-10.023,30.476-16.507c4.58-5.324,6.192-11.015,5.513-16.48
	c-0.565-4.644-2.77-9.174-6.248-13.45c-3.024-3.71-7.067-7.305-12.043-10.675c-4.439-3.058-9.415-5.749-14.589-8.127
	c-4.862-2.209-10.121-4.219-15.521-5.975c-5.315-1.699-10.97-3.228-16.793-4.474C53.93,3.942,47.569,2.866,40.869,2.074
	c-0.622-0.085-1.188-0.113-1.696-0.113s-0.962,0.028-1.301,0.085c-0.367,0.057-0.65,0.142-0.82,0.283
	c-0.141,0.113-0.198,0.254-0.113,0.424c0.084,0.17,0.311,0.368,0.622,0.538c0.339,0.198,0.763,0.368,1.244,0.538
	c0.509,0.17,1.074,0.311,1.696,0.453c0.622,0.142,1.244,0.227,1.922,0.312c2.94,0.312,5.796,0.708,8.595,1.161
	c2.742,0.425,5.4,0.935,8.001,1.501c2.573,0.538,5.117,1.161,7.577,1.812c2.46,0.651,4.863,1.359,7.181,2.124
	c2.346,0.764,4.637,1.585,6.869,2.463c2.234,0.906,4.44,1.84,6.531,2.832c2.148,1.019,4.24,2.123,6.191,3.256
	c2.035,1.19,3.986,2.463,5.768,3.795c1.895,1.387,3.562,2.803,5.004,4.247c1.499,1.529,2.771,3.058,3.789,4.616
	c1.046,1.642,1.837,3.313,2.318,4.983c0.48,1.784,0.649,3.568,0.396,5.352c-0.227,1.897-0.905,3.766-2.093,5.578
	c-1.243,1.954-3.053,3.851-5.428,5.606c-2.601,1.897-5.852,3.653-9.838,5.153c-1.895,0.736-3.959,1.416-6.164,2.011L72.844,29.54
	c-0.396-0.878-0.905-1.727-1.499-2.492c-0.594-0.793-1.272-1.529-2.007-2.181c-0.706-0.651-1.47-1.189-2.262-1.614
	c-0.763-0.453-1.555-0.736-2.318-0.878l-37.206-6.654c-1.329-0.255-2.544-0.255-3.619-0.028c-1.075,0.227-2.007,0.651-2.714,1.274
	c-0.735,0.651-1.244,1.472-1.499,2.463c-0.254,0.991-0.226,2.152,0.113,3.426l4.438,16.055c-2.997,2.293-5.71,4.7-8.142,7.192
	c-4.043,4.134-7.379,8.552-9.895,13.167c-2.77,5.154-4.552,10.647-4.976,16.282c-0.481,6.399,0.763,13.081,4.297,19.566
	c0.538,0.963,1.103,1.926,1.753,2.888c0.65,0.991,1.357,1.954,2.092,2.917c0.792,0.991,1.64,1.954,2.516,2.916
	c0.933,0.991,1.922,1.982,2.969,2.945c8.34,7.674,19.96,13.677,34.208,17.442c16.03,4.247,34.35,5.408,53.235,3.144
	c19.763-2.35,38.422-8.212,53.857-17.018c14.786-8.438,25.36-18.858,30.76-30.241c0.707-1.443,1.301-2.916,1.809-4.388
	c0.509-1.444,0.933-2.888,1.244-4.332c0.339-1.416,0.565-2.832,0.707-4.275c0.141-1.388,0.226-2.775,0.197-4.163
	C190.906,61.961,190.453,60.942,189.69,59.979"/>
<path fill="none" stroke="#1A171B" stroke-width="0.9911" stroke-miterlimit="112" d="M182.339,65.388
	c-0.226,1.303-0.509,2.605-0.876,3.908c-0.395,1.303-0.849,2.633-1.386,3.936c-0.537,1.331-1.159,2.662-1.865,3.992
	c-5.457,10.25-15.437,19.595-29.092,27.183c-14.192,7.9-31.155,13.252-49.107,15.574c-17.189,2.208-33.955,1.444-48.769-2.096
	c-13.316-3.171-24.313-8.381-32.399-15.205c-1.018-0.878-1.979-1.727-2.884-2.634c-0.876-0.85-1.696-1.728-2.488-2.634
	c-0.735-0.877-1.442-1.755-2.092-2.633c-0.65-0.878-1.216-1.756-1.753-2.634c-3.647-5.946-5.089-12.119-4.863-18.093
	c0.226-5.295,1.725-10.505,4.241-15.404c2.262-4.417,5.372-8.665,9.16-12.629c3.506-3.681,7.69-7.164,12.468-10.448
	c0.028-0.028,0.057-0.057,0.113-0.085c0.028,0,0.084-0.028,0.113-0.057c0.028-0.028,0.085-0.057,0.113-0.085
	c0.057-0.028,0.085-0.057,0.141-0.057c0.311-0.17,0.622-0.34,0.961-0.481c0.339-0.113,0.678-0.227,1.018-0.312
	c0.339-0.085,0.65-0.142,0.961-0.17c0.311-0.028,0.594-0.028,0.848,0c0.028,0.028,0.057,0.028,0.085,0.028
	c0.028,0,0.056,0,0.084,0.028c0.057,0,0.085,0,0.113,0.028c0.028,0,0.028,0,0.057,0.028c0.198,0.057,0.311,0.17,0.396,0.283
	c0.057,0.142,0.085,0.283,0.028,0.425c-0.028,0.17-0.141,0.368-0.311,0.538c-0.17,0.198-0.396,0.396-0.678,0.595
	c-4.212,2.973-7.832,6.173-10.8,9.486c-3.195,3.539-5.711,7.305-7.379,11.185c-1.866,4.248-2.742,8.693-2.432,13.11
	c0.339,4.927,2.177,9.91,5.852,14.554c0.566,0.679,1.131,1.358,1.753,2.01c0.65,0.68,1.329,1.359,2.035,2.011
	c0.735,0.651,1.499,1.331,2.318,1.982c0.848,0.65,1.725,1.302,2.658,1.925c7.237,4.927,16.624,8.495,27.593,10.421
	c11.931,2.123,25.162,2.208,38.534,0.198c13.854-2.067,27.028-6.229,38.28-12.177c10.941-5.72,19.395-12.77,24.653-20.556
	c0.678-1.02,1.3-2.039,1.865-3.086c0.565-1.02,1.074-2.039,1.499-3.086c0.452-0.991,0.819-2.011,1.159-3.03
	c0.311-1.02,0.565-2.039,0.763-3.03c0.028-0.085,0.028-0.142,0.057-0.198c0-0.085,0.028-0.142,0.057-0.198
	c0.028-0.057,0.057-0.142,0.113-0.198c0.028-0.057,0.057-0.113,0.113-0.17c0.282-0.425,0.763-0.793,1.356-1.104
	c0.594-0.311,1.357-0.538,2.178-0.708c0.848-0.142,1.809-0.227,2.827-0.255c1.046,0,2.148,0.085,3.308,0.283
	c0.169,0.028,0.311,0.057,0.48,0.085c0.142,0.028,0.311,0.057,0.452,0.085c0.17,0.028,0.312,0.057,0.48,0.085
	c0.142,0.028,0.283,0.057,0.452,0.113c1.103,0.255,2.149,0.595,3.082,0.991c0.933,0.396,1.81,0.85,2.516,1.331
	c0.707,0.509,1.272,1.019,1.669,1.557c0.396,0.566,0.594,1.133,0.565,1.67C182.679,62.839,182.537,64.114,182.339,65.388
	 M48.077,31.041l10.093,0.935l3.901,9.769l7.775,0.113l4.664,10.958l-7.774,0.68l4.523,11.298l-10.15,1.954l-4.495-12.346
	l-10.715,0.962l-4.58-13.875l10.63,0.142L48.077,31.041L48.077,31.041z M76.462,65.728c0.735-0.481,1.64-0.821,2.686-1.02
	c11.732-2.067,20.186-5.578,25.614-9.74c4.665-3.568,7.012-7.617,7.407-11.695c0.367-3.539-0.735-7.164-3.053-10.646
	c-2.064-3.086-5.146-6.144-9.104-9.061c-3.647-2.662-7.803-5.069-12.271-7.164c-4.212-2.01-8.82-3.794-13.627-5.38
	c-4.722-1.529-9.782-2.888-14.984-3.993c-5.315-1.133-10.969-2.067-16.906-2.718c-0.509-0.057-0.989-0.142-1.47-0.255
	c-0.48-0.085-0.933-0.198-1.329-0.34c-0.368-0.142-0.707-0.283-0.961-0.425c-0.254-0.142-0.424-0.283-0.509-0.425
	c-0.057-0.113-0.028-0.255,0.085-0.34c0.141-0.084,0.339-0.169,0.622-0.226c0.283-0.028,0.622-0.057,1.018-0.057
	s0.848,0.028,1.357,0.085c3.336,0.396,6.587,0.849,9.726,1.387c3.081,0.51,6.078,1.076,9.018,1.728
	c2.884,0.623,5.711,1.302,8.481,2.039c2.771,0.736,5.457,1.557,8.086,2.407c2.657,0.85,5.287,1.756,7.803,2.718
	c2.573,0.991,5.089,2.067,7.521,3.171c2.516,1.161,4.947,2.378,7.293,3.681c2.432,1.331,4.778,2.775,7.012,4.304
	c2.375,1.642,4.495,3.285,6.39,4.983c2.007,1.784,3.788,3.653,5.286,5.521c1.612,2.011,2.912,4.078,3.874,6.173
	c1.046,2.266,1.725,4.587,1.95,6.909c0.255,2.548-0.028,5.097-0.876,7.646c-0.905,2.803-2.545,5.55-4.977,8.211
	c-2.657,2.917-6.247,5.72-10.912,8.268c-5.089,2.775-11.422,5.239-18.999,7.221c-1.159,0.312-2.375,0.368-3.619,0.198
	c-1.244-0.142-2.516-0.481-3.704-1.02c-1.159-0.538-2.262-1.217-3.194-2.067c-0.933-0.821-1.696-1.756-2.262-2.803
	c-0.509-0.991-0.792-1.982-0.792-2.916c-0.028-0.906,0.17-1.756,0.594-2.492C75.134,66.86,75.699,66.237,76.462,65.728
	 M26.147,45.727l9.491,34.384c0.509,1.869,1.329,3.568,2.403,5.04c1.046,1.473,2.347,2.69,3.732,3.597
	c1.414,0.906,2.912,1.501,4.439,1.756c1.527,0.227,3.025,0.085,4.467-0.425l28.752-10.278c0.028,0.028,0.084,0.057,0.141,0.085
	c1.527,0.679,3.167,1.16,4.806,1.358c1.612,0.17,3.223,0.085,4.693-0.312c15.012-4.105,24.907-10.023,30.476-16.507
	c4.58-5.324,6.192-11.015,5.513-16.48c-0.565-4.644-2.77-9.174-6.248-13.45c-3.024-3.71-7.067-7.305-12.043-10.675
	c-4.439-3.058-9.415-5.749-14.589-8.127c-4.862-2.209-10.121-4.219-15.521-5.975c-5.315-1.699-10.97-3.228-16.793-4.474
	C53.93,3.942,47.569,2.866,40.869,2.074c-0.622-0.085-1.188-0.113-1.696-0.113s-0.962,0.028-1.301,0.085
	c-0.367,0.057-0.65,0.142-0.82,0.283c-0.141,0.113-0.198,0.254-0.113,0.424c0.084,0.17,0.311,0.368,0.622,0.538
	c0.339,0.198,0.763,0.368,1.244,0.538c0.509,0.17,1.074,0.311,1.696,0.453c0.622,0.142,1.244,0.227,1.922,0.312
	c2.94,0.312,5.796,0.708,8.595,1.161c2.742,0.425,5.4,0.935,8.001,1.501c2.573,0.538,5.117,1.161,7.577,1.812
	c2.46,0.651,4.863,1.359,7.181,2.124c2.346,0.764,4.636,1.585,6.87,2.463c2.234,0.906,4.439,1.84,6.531,2.832
	c2.148,1.019,4.24,2.123,6.191,3.256c2.035,1.19,3.986,2.463,5.768,3.795c1.895,1.387,3.562,2.803,5.004,4.247
	c1.499,1.529,2.771,3.058,3.789,4.616c1.046,1.642,1.837,3.313,2.318,4.983c0.48,1.784,0.649,3.568,0.396,5.352
	c-0.227,1.897-0.905,3.766-2.093,5.578c-1.243,1.954-3.053,3.851-5.428,5.606c-2.601,1.897-5.852,3.653-9.838,5.153
	c-1.895,0.736-3.959,1.416-6.164,2.011L72.844,29.54c-0.396-0.878-0.905-1.727-1.499-2.492c-0.594-0.793-1.272-1.529-2.007-2.181
	c-0.706-0.651-1.47-1.189-2.262-1.614c-0.763-0.453-1.555-0.736-2.318-0.878l-37.206-6.654c-1.329-0.255-2.544-0.255-3.619-0.028
	c-1.075,0.227-2.007,0.651-2.714,1.274c-0.735,0.651-1.244,1.472-1.499,2.463c-0.254,0.991-0.226,2.152,0.113,3.426l4.438,16.055
	c-2.997,2.293-5.71,4.7-8.142,7.192c-4.043,4.134-7.379,8.552-9.895,13.167c-2.77,5.154-4.552,10.647-4.976,16.282
	c-0.481,6.399,0.763,13.081,4.297,19.566c0.538,0.963,1.103,1.926,1.753,2.888c0.65,0.991,1.357,1.954,2.092,2.917
	c0.792,0.991,1.64,1.954,2.516,2.916c0.933,0.991,1.922,1.982,2.969,2.945c8.34,7.674,19.96,13.677,34.208,17.442
	c16.03,4.247,34.35,5.408,53.235,3.144c19.763-2.35,38.422-8.212,53.857-17.018c14.786-8.438,25.36-18.858,30.76-30.241
	c0.707-1.443,1.301-2.916,1.809-4.388c0.509-1.444,0.933-2.888,1.244-4.332c0.339-1.416,0.565-2.832,0.707-4.275
	c0.141-1.388,0.226-2.775,0.197-4.163c0-0.991-0.452-2.01-1.216-2.973 M189.69,59.979c-0.763-0.963-1.837-1.897-3.166-2.747
	c-1.272-0.85-2.827-1.614-4.523-2.293c-1.668-0.651-3.478-1.218-5.4-1.643c-0.254-0.057-0.537-0.113-0.791-0.17
	c-0.255-0.057-0.537-0.113-0.792-0.17c-0.254-0.057-0.537-0.085-0.791-0.142c-0.283-0.028-0.537-0.085-0.82-0.113
	c-1.951-0.283-3.845-0.396-5.569-0.396c-1.753,0.028-3.336,0.17-4.75,0.453c-1.413,0.283-2.657,0.68-3.675,1.189
	c-1.046,0.481-1.838,1.104-2.375,1.84c-0.085,0.085-0.142,0.198-0.198,0.283c-0.085,0.113-0.141,0.227-0.169,0.34
	c-0.057,0.085-0.113,0.198-0.142,0.311c-0.057,0.113-0.085,0.227-0.113,0.34c-0.227,0.935-0.509,1.84-0.848,2.775
	c-0.34,0.935-0.735,1.84-1.188,2.775c-0.453,0.935-0.962,1.869-1.499,2.803c-0.566,0.935-1.188,1.869-1.838,2.775
	c-5.089,7.022-12.977,13.365-23.013,18.546c-10.319,5.323-22.307,9.118-34.858,11.1c-12.186,1.897-24.286,1.982-35.255,0.255
	c-10.178-1.613-18.97-4.672-25.869-9.032c-0.876-0.566-1.725-1.133-2.545-1.728c-0.792-0.566-1.527-1.161-2.233-1.756
	c-0.707-0.595-1.357-1.188-1.979-1.812c-0.622-0.595-1.188-1.189-1.725-1.812c-3.647-4.219-5.569-8.777-6.107-13.365
	c-0.452-4.105,0.226-8.268,1.866-12.261c1.47-3.681,3.76-7.277,6.757-10.675"/>
</svg>
