<?xml version="1.0" encoding="utf-8"?>
<!-- Generator: Adobe Illustrator 17.0.0, SVG Export Plug-In . SVG Version: 6.00 Build 0)  -->
<!DOCTYPE svg PUBLIC "-//W3C//DTD SVG 1.1//EN" "http://www.w3.org/Graphics/SVG/1.1/DTD/svg11.dtd">
<svg version="1.1" id="Capa_1" xmlns:sketch="http://www.bohemiancoding.com/sketch/ns"
	 xmlns="http://www.w3.org/2000/svg" xmlns:xlink="http://www.w3.org/1999/xlink" x="0px" y="0px" width="167px" height="167px"
	 viewBox="60.23 60.23 167 167" enable-background="new 60.23 60.23 167 167" xml:space="preserve">
<path d="M168.108,114.1l-5.798-3.615l14.495-23.228l5.798,3.615L168.108,114.1z M148.566,80.135h-6.836v27.38h6.836V80.135z
	 M127.772,110.485l-14.495-23.228l-5.798,3.651l14.495,23.228L127.772,110.485z M223.869,141.73l-55.439,11.632
	c0.68,2.756,0.68,6.156,0.68,8.912c0,22.584-18.468,41.087-41.087,41.087c-19.148,0-34.896-12.992-39.692-30.1
	c-2.04,1.36-4.796,2.72-8.232,2.72c-7.516,0-13.672-6.156-13.672-13.672c0-7.516,6.156-13.672,13.672-13.672
	c3.436,0,6.156,1.36,8.232,2.72c4.796-17.108,20.544-30.1,39.692-30.1h6.836v13.672h20.544v-13.672h68.431v20.472H223.869z
	 M86.971,162.274c0-4.116-2.756-6.836-6.836-6.836s-6.836,2.72-6.836,6.836c0,4.116,2.756,6.836,6.836,6.836
	C84.215,169.11,86.971,166.39,86.971,162.274z"/>
</svg>
